<svg width="35" height="35" viewBox="0 0 35 35" fill="none" xmlns="http://www.w3.org/2000/svg">
<path d="M17.5 4.68414V22.2221" stroke="#201B10" stroke-width="2.5" stroke-miterlimit="10" stroke-linecap="round"/>
<path d="M24.2446 10.8733L18.4623 5.08958C18.2065 4.83648 17.8612 4.69452 17.5013 4.69452C17.1414 4.69452 16.7961 4.83648 16.5403 5.08958L10.755 10.8733M4.01026 20.1979V26.9427C4.00968 27.3858 4.09654 27.8247 4.26585 28.2342C4.43516 28.6437 4.6836 29.0158 4.99694 29.3292C5.31028 29.6425 5.68236 29.8909 6.09186 30.0602C6.50137 30.2296 6.94026 30.3164 7.38338 30.3158H27.6178C28.0608 30.3162 28.4995 30.2292 28.9088 30.0598C29.3182 29.8904 29.6901 29.642 30.0033 29.3286C30.3164 29.0153 30.5648 28.6433 30.734 28.2339C30.9032 27.8245 30.99 27.3857 30.9894 26.9427V20.1979" stroke="#201B10" stroke-width="2.5" stroke-linecap="round" stroke-linejoin="round"/>
</svg>
