<svg width="33" height="33" viewBox="0 0 33 33" fill="none" xmlns="http://www.w3.org/2000/svg">
<path d="M16.5007 9.99664V16.4999L20.5653 20.5644" stroke="#201B10" stroke-width="2.43872" stroke-linecap="round" stroke-linejoin="round"/>
<path d="M7.08179 26.9792C12.4847 31.8533 20.6735 31.8926 26.0232 27.0827L26.6873 27.7468C20.9656 32.9291 12.1827 32.8776 6.41772 27.6423L7.08179 26.9792ZM27.6433 6.41669C32.8784 12.1814 32.9285 20.9645 27.7478 26.6862L27.0837 26.0222C31.8936 20.6722 31.8547 12.4826 26.9802 7.07977L27.6433 6.41669ZM2.38647 15.1677C2.22408 17.1104 2.46091 19.0687 3.08667 20.9206C3.71223 22.772 4.71147 24.4719 6.01831 25.9177L5.35522 26.5807C3.94598 25.0316 2.86889 23.2067 2.19702 21.2175C1.52538 19.2289 1.27481 17.1254 1.45581 15.0397L2.38647 15.1677ZM7.43433 7.7077L7.42944 8.64618L6.34546 8.6413L6.96362 8.02313L7.27905 7.70673L7.43433 7.7077ZM6.31421 5.25262C12.0354 0.0709717 20.8179 0.122102 26.5828 5.35614L25.9197 6.01923C20.5168 1.14594 12.3267 1.1062 6.97729 5.91571L6.31421 5.25262ZM4.49585 4.92157L3.56226 5.85516L3.5564 4.77411L4.49487 4.76825L4.49585 4.92157Z" stroke="#201B10" stroke-width="1.5"/>
</svg>
